<?xml version="1.0" encoding="UTF-8" standalone="no"?>
<!-- Created with Inkscape (http://www.inkscape.org/) -->

<svg
   xmlns:dc="http://purl.org/dc/elements/1.1/"
   xmlns:cc="http://creativecommons.org/ns#"
   xmlns:rdf="http://www.w3.org/1999/02/22-rdf-syntax-ns#"
   xmlns:svg="http://www.w3.org/2000/svg"
   xmlns="http://www.w3.org/2000/svg"
   xmlns:sodipodi="http://sodipodi.sourceforge.net/DTD/sodipodi-0.dtd"
   xmlns:inkscape="http://www.inkscape.org/namespaces/inkscape"
   width="371.65884mm"
   height="359.38174mm"
   viewBox="0 0 371.65884 359.38174"
   version="1.1"
   id="svg8"
   sodipodi:docname="1.svg"
   inkscape:version="0.92.2 5c3e80d, 2017-08-06">
  <defs
     id="defs2">
    <inkscape:path-effect
       effect="mirror_symmetry"
       start_point="98.424917,21.83333"
       end_point="98.424917,85.33333"
       center_point="98.424917,53.58333"
       id="path-effect1127"
       is_visible="true"
       mode="free"
       discard_orig_path="false"
       fuse_paths="false"
       oposite_fuse="false" />
    <inkscape:path-effect
       effect="mirror_symmetry"
       start_point="98.424917,21.83333"
       end_point="98.424917,85.33333"
       center_point="98.424917,53.58333"
       id="path-effect1125"
       is_visible="true"
       mode="free"
       discard_orig_path="false"
       fuse_paths="false"
       oposite_fuse="false" />
    <inkscape:path-effect
       oposite_fuse="false"
       fuse_paths="false"
       discard_orig_path="false"
       mode="free"
       is_visible="true"
       id="path-effect1096"
       center_point="98.424917,53.58333"
       end_point="98.424917,85.33333"
       start_point="98.424917,21.83333"
       effect="mirror_symmetry" />
    <inkscape:path-effect
       oposite_fuse="false"
       fuse_paths="false"
       discard_orig_path="false"
       mode="free"
       is_visible="true"
       id="path-effect1094"
       center_point="98.424917,53.58333"
       end_point="98.424917,85.33333"
       start_point="98.424917,21.83333"
       effect="mirror_symmetry" />
    <inkscape:path-effect
       oposite_fuse="false"
       fuse_paths="false"
       discard_orig_path="false"
       mode="free"
       is_visible="true"
       id="path-effect1066"
       center_point="98.424917,53.58333"
       end_point="98.424917,85.33333"
       start_point="98.424917,21.83333"
       effect="mirror_symmetry" />
    <inkscape:path-effect
       oposite_fuse="false"
       fuse_paths="false"
       discard_orig_path="false"
       mode="free"
       is_visible="true"
       id="path-effect1064"
       center_point="98.424917,53.58333"
       end_point="98.424917,85.33333"
       start_point="98.424917,21.83333"
       effect="mirror_symmetry" />
    <inkscape:path-effect
       effect="mirror_symmetry"
       start_point="98.424917,21.83333"
       end_point="98.424917,85.33333"
       center_point="98.424917,53.58333"
       id="path-effect1060"
       is_visible="true"
       mode="free"
       discard_orig_path="false"
       fuse_paths="false"
       oposite_fuse="false" />
    <inkscape:path-effect
       oposite_fuse="false"
       fuse_paths="false"
       discard_orig_path="false"
       mode="free"
       is_visible="true"
       id="path-effect1056"
       center_point="98.424917,53.58333"
       end_point="98.424917,85.33333"
       start_point="98.424917,21.83333"
       effect="mirror_symmetry" />
    <inkscape:path-effect
       effect="mirror_symmetry"
       start_point="209.54999,121.43302"
       end_point="209.54999,186.81698"
       center_point="209.54999,154.125"
       id="path-effect1031"
       is_visible="true"
       mode="free"
       discard_orig_path="false"
       fuse_paths="false"
       oposite_fuse="false" />
    <inkscape:path-effect
       effect="mirror_symmetry"
       start_point="130.17492,-21.441962"
       end_point="130.17492,43.941956"
       center_point="130.17492,11.249997"
       id="path-effect1027"
       is_visible="true"
       mode="free"
       discard_orig_path="false"
       fuse_paths="false"
       oposite_fuse="false" />
    <inkscape:path-effect
       effect="mirror_symmetry"
       start_point="98.424917,21.83333"
       end_point="98.424917,85.33333"
       center_point="98.424917,53.58333"
       id="path-effect1025"
       is_visible="true"
       mode="free"
       discard_orig_path="false"
       fuse_paths="false"
       oposite_fuse="false" />
    <inkscape:path-effect
       effect="mirror_symmetry"
       start_point="211.66666,20.94471"
       end_point="211.66666,86.328628"
       center_point="211.66666,53.636669"
       id="path-effect1023"
       is_visible="true"
       mode="free"
       discard_orig_path="false"
       fuse_paths="false"
       oposite_fuse="false" />
    <inkscape:path-effect
       effect="mirror_symmetry"
       start_point="211.66666,20.94471"
       end_point="211.66666,86.328628"
       center_point="211.66666,53.636669"
       id="path-effect917"
       is_visible="true"
       mode="free"
       discard_orig_path="false"
       fuse_paths="false"
       oposite_fuse="false" />
    <inkscape:path-effect
       oposite_fuse="false"
       fuse_paths="false"
       discard_orig_path="false"
       mode="free"
       is_visible="true"
       id="path-effect859"
       center_point="47.625,53.583333"
       end_point="55.562501,53.583333"
       start_point="39.687499,53.583333"
       effect="mirror_symmetry" />
    <inkscape:path-effect
       effect="mirror_symmetry"
       start_point="-13.229168,53.583333"
       end_point="2.6458351,53.583333"
       center_point="-5.2916664,53.583333"
       id="path-effect16"
       is_visible="true"
       mode="free"
       discard_orig_path="false"
       fuse_paths="false"
       oposite_fuse="false" />
  </defs>
  <sodipodi:namedview
     id="base"
     pagecolor="#ffffff"
     bordercolor="#666666"
     borderopacity="1.0"
     inkscape:pageopacity="0.0"
     inkscape:pageshadow="2"
     inkscape:zoom="0.49497475"
     inkscape:cx="550.86276"
     inkscape:cy="772.71315"
     inkscape:document-units="mm"
     inkscape:current-layer="g27"
     showgrid="true"
     showguides="false"
     inkscape:window-width="1927"
     inkscape:window-height="1036"
     inkscape:window-x="2"
     inkscape:window-y="0"
     inkscape:window-maximized="0"
     fit-margin-top="0"
     fit-margin-left="0"
     fit-margin-right="0"
     fit-margin-bottom="0">
    <inkscape:grid
       type="xygrid"
       id="grid10"
       originx="-190.05404"
       originy="19.98395" />
  </sodipodi:namedview>
  <metadata
     id="metadata5">
    <rdf:RDF>
      <cc:Work
         rdf:about="">
        <dc:format>image/svg+xml</dc:format>
        <dc:type
           rdf:resource="http://purl.org/dc/dcmitype/StillImage" />
        <dc:title></dc:title>
      </cc:Work>
    </rdf:RDF>
  </metadata>
  <g
     inkscape:label="Layer 1"
     inkscape:groupmode="layer"
     id="layer1"
     transform="translate(-190.05404,42.39779)">
    <g
       id="g27">
      <g
         style="fill:#4d4d4d;fill-opacity:1"
         transform="translate(224.36675,21.166669)"
         id="g1099" />
      <g
         id="g1764"
         transform="rotate(148.63868,311.69118,181.88598)">
        <g
           style="fill:#4d4d4d;stroke:#4d4d4d"
           transform="translate(0,42.333333)"
           id="g1754">
          <g
             style="fill:#4d4d4d;stroke:none"
             id="g1744">
            <g
               style="fill:#4d4d4d;stroke:none"
               id="g1742"
               transform="translate(113.24168)">
              <path
                 inkscape:original-d="m 278.30464,185.46535 c -9.1952,-3.9936 -13.66646,-7.92008 -18.83862,-15.3197 -2.73722,-3.17315 -7.44329,-9.71942 -11.55145,-10.72898 h -38.36458 v -10.58334 h 38.36458 c 4.39013,-1.3799 11.21399,-10.2786 12.24606,-11.76586 4.28996,-6.20772 7.33667,-8.88884 13.93625,-12.26396 3.25595,-1.66514 7.31196,-3.46216 7.46621,-3.30791 0.053,0.053 0.0659,14.78402 0.0285,32.73554 l -0.0679,32.63914 z"
                 inkscape:path-effect="#path-effect1031"
                 style="opacity:1;fill:#4d4d4d;fill-opacity:1;stroke:none;stroke-width:6.5659914;stroke-linecap:round;stroke-miterlimit:4;stroke-dasharray:none;stroke-opacity:1"
                 d="m 278.30464,185.46535 c -9.1952,-3.9936 -13.66646,-7.92008 -18.83862,-15.3197 -2.73722,-3.17315 -7.44329,-9.71942 -11.55145,-10.72898 h -38.36458 v -10.58334 h 38.36458 c 4.39013,-1.3799 11.21399,-10.2786 12.24606,-11.76586 4.28996,-6.20772 7.33667,-8.88884 13.93625,-12.26396 3.25595,-1.66514 7.31196,-3.46216 7.46621,-3.30791 0.053,0.053 0.0659,14.78402 0.0285,32.73554 l -0.0679,32.63914 z m -137.5093,0 c 9.1952,-3.9936 13.66646,-7.92008 18.83862,-15.3197 2.73722,-3.17315 7.44329,-9.71942 11.55145,-10.72898 h 38.36458 v -10.58334 h -38.36458 c -4.39013,-1.3799 -11.21399,-10.2786 -12.24606,-11.76586 -4.28996,-6.20772 -7.33667,-8.88884 -13.93625,-12.26396 -3.25595,-1.66514 -7.31196,-3.46216 -7.46621,-3.30791 -0.053,0.053 -0.0659,14.78402 -0.0285,32.73554 l 0.0679,32.63914 z"
                 id="path1740"
                 inkscape:connector-curvature="0"
                 sodipodi:nodetypes="cccccccccccc" />
            </g>
          </g>
          <g
             style="fill:#4d4d4d;stroke:#4d4d4d"
             transform="translate(0,100.54167)"
             id="g1750">
            <g
               style="fill:#4d4d4d;stroke:#4d4d4d"
               inkscape:path-effect="#path-effect1023"
               transform="translate(224.36675)"
               id="g1748">
              <path
                 d="m 211.66666,53.583332 c 0,17.535041 -14.21496,31.75 -31.75,31.75 -17.53504,0 -31.75,-14.214959 -31.75,-31.75 0,-17.535041 14.21496,-31.75 31.75,-31.75 17.53504,0 31.75,14.214959 31.75,31.75 z m -226.483482,0 c 0,17.535041 14.21495871,31.75 31.75,31.75 17.53504,0 31.75,-14.214959 31.75,-31.75 0,-17.535041 -14.21496,-31.75 -31.75,-31.75 -17.53504129,0 -31.75,14.214959 -31.75,31.75 z m 0,0 c 0,17.535041 14.21495871,31.75 31.75,31.75 17.53504,0 31.75,-14.214959 31.75,-31.75 0,-17.535041 -14.21496,-31.75 -31.75,-31.75 -17.53504129,0 -31.75,14.214959 -31.75,31.75 z m 226.483482,0 c 0,17.535041 -14.21496,31.75 -31.75,31.75 -17.53504,0 -31.75,-14.214959 -31.75,-31.75 0,-17.535041 14.21496,-31.75 31.75,-31.75 17.53504,0 31.75,14.214959 31.75,31.75 z m 0,0 c 0,17.535041 14.21496,31.75 31.75,31.75 17.53504,0 31.75,-14.214959 31.75,-31.75 0,-17.535041 -14.21496,-31.75 -31.75,-31.75 -17.53504,0 -31.75,14.214959 -31.75,31.75 z m 226.48348,0 c 0,17.535041 -14.21496,31.75 -31.75,31.75 -17.53504,0 -31.75,-14.214959 -31.75,-31.75 0,-17.535041 14.21496,-31.75 31.75,-31.75 17.53504,0 31.75,14.214959 31.75,31.75 z m 0,0 c 0,17.535041 -14.21496,31.75 -31.75,31.75 -17.53504,0 -31.75,-14.214959 -31.75,-31.75 0,-17.535041 14.21496,-31.75 31.75,-31.75 17.53504,0 31.75,14.214959 31.75,31.75 z m -226.48348,0 c 0,17.535041 14.21496,31.75 31.75,31.75 17.53504,0 31.75,-14.214959 31.75,-31.75 0,-17.535041 -14.21496,-31.75 -31.75,-31.75 -17.53504,0 -31.75,14.214959 -31.75,31.75 z"
                 sodipodi:ry="31.75"
                 sodipodi:rx="31.75"
                 sodipodi:cy="53.583332"
                 sodipodi:cx="179.91666"
                 sodipodi:type="arc"
                 inkscape:path-effect="#path-effect1025;#path-effect1060"
                 style="opacity:1;fill:#4d4d4d;fill-opacity:1;stroke:#4d4d4d;stroke-width:6.5;stroke-linecap:round;stroke-miterlimit:4;stroke-dasharray:none;stroke-opacity:1"
                 id="path1746" />
            </g>
          </g>
          <rect
             y="147.51042"
             x="276.48959"
             height="13.229156"
             width="97.895836"
             id="rect1752"
             style="opacity:1;fill:#4d4d4d;fill-opacity:1;stroke:none;stroke-width:7.26721764;stroke-linecap:round;stroke-miterlimit:4;stroke-dasharray:none;stroke-opacity:1" />
        </g>
      </g>
      <g
         transform="rotate(-143.56577,292.20066,144.65434)"
         id="g1792">
        <g
           id="g1790"
           transform="translate(0,42.333333)"
           style="fill:#4d4d4d;stroke:#4d4d4d">
          <g
             id="g1780"
             style="fill:#4d4d4d;stroke:none">
            <g
               transform="translate(113.24168)"
               id="g1778"
               style="fill:#4d4d4d;stroke:none">
              <path
                 sodipodi:nodetypes="cccccccccccc"
                 inkscape:connector-curvature="0"
                 id="path1776"
                 d="m 278.30464,185.46535 c -9.1952,-3.9936 -13.66646,-7.92008 -18.83862,-15.3197 -2.73722,-3.17315 -7.44329,-9.71942 -11.55145,-10.72898 h -38.36458 v -10.58334 h 38.36458 c 4.39013,-1.3799 11.21399,-10.2786 12.24606,-11.76586 4.28996,-6.20772 7.33667,-8.88884 13.93625,-12.26396 3.25595,-1.66514 7.31196,-3.46216 7.46621,-3.30791 0.053,0.053 0.0659,14.78402 0.0285,32.73554 l -0.0679,32.63914 z m -137.5093,0 c 9.1952,-3.9936 13.66646,-7.92008 18.83862,-15.3197 2.73722,-3.17315 7.44329,-9.71942 11.55145,-10.72898 h 38.36458 v -10.58334 h -38.36458 c -4.39013,-1.3799 -11.21399,-10.2786 -12.24606,-11.76586 -4.28996,-6.20772 -7.33667,-8.88884 -13.93625,-12.26396 -3.25595,-1.66514 -7.31196,-3.46216 -7.46621,-3.30791 -0.053,0.053 -0.0659,14.78402 -0.0285,32.73554 l 0.0679,32.63914 z"
                 style="opacity:1;fill:#4d4d4d;fill-opacity:1;stroke:none;stroke-width:6.5659914;stroke-linecap:round;stroke-miterlimit:4;stroke-dasharray:none;stroke-opacity:1"
                 inkscape:path-effect="#path-effect1031"
                 inkscape:original-d="m 278.30464,185.46535 c -9.1952,-3.9936 -13.66646,-7.92008 -18.83862,-15.3197 -2.73722,-3.17315 -7.44329,-9.71942 -11.55145,-10.72898 h -38.36458 v -10.58334 h 38.36458 c 4.39013,-1.3799 11.21399,-10.2786 12.24606,-11.76586 4.28996,-6.20772 7.33667,-8.88884 13.93625,-12.26396 3.25595,-1.66514 7.31196,-3.46216 7.46621,-3.30791 0.053,0.053 0.0659,14.78402 0.0285,32.73554 l -0.0679,32.63914 z" />
            </g>
          </g>
          <g
             id="g1786"
             transform="translate(0,100.54167)"
             style="fill:#4d4d4d;stroke:#4d4d4d">
            <g
               id="g1784"
               transform="translate(224.36675)"
               inkscape:path-effect="#path-effect1023"
               style="fill:#4d4d4d;stroke:#4d4d4d">
              <path
                 id="path1782"
                 style="opacity:1;fill:#4d4d4d;fill-opacity:1;stroke:#4d4d4d;stroke-width:6.5;stroke-linecap:round;stroke-miterlimit:4;stroke-dasharray:none;stroke-opacity:1"
                 inkscape:path-effect="#path-effect1025;#path-effect1060"
                 sodipodi:type="arc"
                 sodipodi:cx="179.91666"
                 sodipodi:cy="53.583332"
                 sodipodi:rx="31.75"
                 sodipodi:ry="31.75"
                 d="m 211.66666,53.583332 c 0,17.535041 -14.21496,31.75 -31.75,31.75 -17.53504,0 -31.75,-14.214959 -31.75,-31.75 0,-17.535041 14.21496,-31.75 31.75,-31.75 17.53504,0 31.75,14.214959 31.75,31.75 z m -226.483482,0 c 0,17.535041 14.21495871,31.75 31.75,31.75 17.53504,0 31.75,-14.214959 31.75,-31.75 0,-17.535041 -14.21496,-31.75 -31.75,-31.75 -17.53504129,0 -31.75,14.214959 -31.75,31.75 z m 0,0 c 0,17.535041 14.21495871,31.75 31.75,31.75 17.53504,0 31.75,-14.214959 31.75,-31.75 0,-17.535041 -14.21496,-31.75 -31.75,-31.75 -17.53504129,0 -31.75,14.214959 -31.75,31.75 z m 226.483482,0 c 0,17.535041 -14.21496,31.75 -31.75,31.75 -17.53504,0 -31.75,-14.214959 -31.75,-31.75 0,-17.535041 14.21496,-31.75 31.75,-31.75 17.53504,0 31.75,14.214959 31.75,31.75 z m 0,0 c 0,17.535041 14.21496,31.75 31.75,31.75 17.53504,0 31.75,-14.214959 31.75,-31.75 0,-17.535041 -14.21496,-31.75 -31.75,-31.75 -17.53504,0 -31.75,14.214959 -31.75,31.75 z m 226.48348,0 c 0,17.535041 -14.21496,31.75 -31.75,31.75 -17.53504,0 -31.75,-14.214959 -31.75,-31.75 0,-17.535041 14.21496,-31.75 31.75,-31.75 17.53504,0 31.75,14.214959 31.75,31.75 z m 0,0 c 0,17.535041 -14.21496,31.75 -31.75,31.75 -17.53504,0 -31.75,-14.214959 -31.75,-31.75 0,-17.535041 14.21496,-31.75 31.75,-31.75 17.53504,0 31.75,14.214959 31.75,31.75 z m -226.48348,0 c 0,17.535041 14.21496,31.75 31.75,31.75 17.53504,0 31.75,-14.214959 31.75,-31.75 0,-17.535041 -14.21496,-31.75 -31.75,-31.75 -17.53504,0 -31.75,14.214959 -31.75,31.75 z" />
            </g>
          </g>
          <rect
             style="opacity:1;fill:#4d4d4d;fill-opacity:1;stroke:none;stroke-width:7.26721764;stroke-linecap:round;stroke-miterlimit:4;stroke-dasharray:none;stroke-opacity:1"
             id="rect1788"
             width="97.895836"
             height="13.229156"
             x="276.48959"
             y="147.51042" />
        </g>
      </g>
      <g
         id="g1810"
         transform="rotate(-114.02172,363.46308,177.94217)">
        <g
           style="fill:#4d4d4d;stroke:#4d4d4d"
           transform="translate(0,42.333333)"
           id="g1808">
          <g
             style="fill:#4d4d4d;stroke:none"
             id="g1798">
            <g
               style="fill:#4d4d4d;stroke:none"
               id="g1796"
               transform="translate(113.24168)">
              <path
                 inkscape:original-d="m 278.30464,185.46535 c -9.1952,-3.9936 -13.66646,-7.92008 -18.83862,-15.3197 -2.73722,-3.17315 -7.44329,-9.71942 -11.55145,-10.72898 h -38.36458 v -10.58334 h 38.36458 c 4.39013,-1.3799 11.21399,-10.2786 12.24606,-11.76586 4.28996,-6.20772 7.33667,-8.88884 13.93625,-12.26396 3.25595,-1.66514 7.31196,-3.46216 7.46621,-3.30791 0.053,0.053 0.0659,14.78402 0.0285,32.73554 l -0.0679,32.63914 z"
                 inkscape:path-effect="#path-effect1031"
                 style="opacity:1;fill:#4d4d4d;fill-opacity:1;stroke:none;stroke-width:6.5659914;stroke-linecap:round;stroke-miterlimit:4;stroke-dasharray:none;stroke-opacity:1"
                 d="m 278.30464,185.46535 c -9.1952,-3.9936 -13.66646,-7.92008 -18.83862,-15.3197 -2.73722,-3.17315 -7.44329,-9.71942 -11.55145,-10.72898 h -38.36458 v -10.58334 h 38.36458 c 4.39013,-1.3799 11.21399,-10.2786 12.24606,-11.76586 4.28996,-6.20772 7.33667,-8.88884 13.93625,-12.26396 3.25595,-1.66514 7.31196,-3.46216 7.46621,-3.30791 0.053,0.053 0.0659,14.78402 0.0285,32.73554 l -0.0679,32.63914 z m -137.5093,0 c 9.1952,-3.9936 13.66646,-7.92008 18.83862,-15.3197 2.73722,-3.17315 7.44329,-9.71942 11.55145,-10.72898 h 38.36458 v -10.58334 h -38.36458 c -4.39013,-1.3799 -11.21399,-10.2786 -12.24606,-11.76586 -4.28996,-6.20772 -7.33667,-8.88884 -13.93625,-12.26396 -3.25595,-1.66514 -7.31196,-3.46216 -7.46621,-3.30791 -0.053,0.053 -0.0659,14.78402 -0.0285,32.73554 l 0.0679,32.63914 z"
                 id="path1794"
                 inkscape:connector-curvature="0"
                 sodipodi:nodetypes="cccccccccccc" />
            </g>
          </g>
          <g
             style="fill:#4d4d4d;stroke:#4d4d4d"
             transform="translate(0,100.54167)"
             id="g1804">
            <g
               style="fill:#4d4d4d;stroke:#4d4d4d"
               inkscape:path-effect="#path-effect1023"
               transform="translate(224.36675)"
               id="g1802">
              <path
                 d="m 211.66666,53.583332 c 0,17.535041 -14.21496,31.75 -31.75,31.75 -17.53504,0 -31.75,-14.214959 -31.75,-31.75 0,-17.535041 14.21496,-31.75 31.75,-31.75 17.53504,0 31.75,14.214959 31.75,31.75 z m -226.483482,0 c 0,17.535041 14.21495871,31.75 31.75,31.75 17.53504,0 31.75,-14.214959 31.75,-31.75 0,-17.535041 -14.21496,-31.75 -31.75,-31.75 -17.53504129,0 -31.75,14.214959 -31.75,31.75 z m 0,0 c 0,17.535041 14.21495871,31.75 31.75,31.75 17.53504,0 31.75,-14.214959 31.75,-31.75 0,-17.535041 -14.21496,-31.75 -31.75,-31.75 -17.53504129,0 -31.75,14.214959 -31.75,31.75 z m 226.483482,0 c 0,17.535041 -14.21496,31.75 -31.75,31.75 -17.53504,0 -31.75,-14.214959 -31.75,-31.75 0,-17.535041 14.21496,-31.75 31.75,-31.75 17.53504,0 31.75,14.214959 31.75,31.75 z m 0,0 c 0,17.535041 14.21496,31.75 31.75,31.75 17.53504,0 31.75,-14.214959 31.75,-31.75 0,-17.535041 -14.21496,-31.75 -31.75,-31.75 -17.53504,0 -31.75,14.214959 -31.75,31.75 z m 226.48348,0 c 0,17.535041 -14.21496,31.75 -31.75,31.75 -17.53504,0 -31.75,-14.214959 -31.75,-31.75 0,-17.535041 14.21496,-31.75 31.75,-31.75 17.53504,0 31.75,14.214959 31.75,31.75 z m 0,0 c 0,17.535041 -14.21496,31.75 -31.75,31.75 -17.53504,0 -31.75,-14.214959 -31.75,-31.75 0,-17.535041 14.21496,-31.75 31.75,-31.75 17.53504,0 31.75,14.214959 31.75,31.75 z m -226.48348,0 c 0,17.535041 14.21496,31.75 31.75,31.75 17.53504,0 31.75,-14.214959 31.75,-31.75 0,-17.535041 -14.21496,-31.75 -31.75,-31.75 -17.53504,0 -31.75,14.214959 -31.75,31.75 z"
                 sodipodi:ry="31.75"
                 sodipodi:rx="31.75"
                 sodipodi:cy="53.583332"
                 sodipodi:cx="179.91666"
                 sodipodi:type="arc"
                 inkscape:path-effect="#path-effect1025;#path-effect1060"
                 style="opacity:1;fill:#4d4d4d;fill-opacity:1;stroke:#4d4d4d;stroke-width:6.5;stroke-linecap:round;stroke-miterlimit:4;stroke-dasharray:none;stroke-opacity:1"
                 id="path1800" />
            </g>
          </g>
          <rect
             y="147.51042"
             x="276.48959"
             height="13.229156"
             width="97.895836"
             id="rect1806"
             style="opacity:1;fill:#4d4d4d;fill-opacity:1;stroke:none;stroke-width:7.26721764;stroke-linecap:round;stroke-miterlimit:4;stroke-dasharray:none;stroke-opacity:1" />
        </g>
      </g>
      <g
         transform="rotate(-176.25011,383.13806,165.27335)"
         id="g1828">
        <g
           id="g1826"
           transform="translate(0,42.333333)"
           style="fill:#4d4d4d;stroke:#4d4d4d">
          <g
             id="g1816"
             style="fill:#4d4d4d;stroke:none">
            <g
               transform="translate(113.24168)"
               id="g1814"
               style="fill:#4d4d4d;stroke:none">
              <path
                 sodipodi:nodetypes="cccccccccccc"
                 inkscape:connector-curvature="0"
                 id="path1812"
                 d="m 278.30464,185.46535 c -9.1952,-3.9936 -13.66646,-7.92008 -18.83862,-15.3197 -2.73722,-3.17315 -7.44329,-9.71942 -11.55145,-10.72898 h -38.36458 v -10.58334 h 38.36458 c 4.39013,-1.3799 11.21399,-10.2786 12.24606,-11.76586 4.28996,-6.20772 7.33667,-8.88884 13.93625,-12.26396 3.25595,-1.66514 7.31196,-3.46216 7.46621,-3.30791 0.053,0.053 0.0659,14.78402 0.0285,32.73554 l -0.0679,32.63914 z m -137.5093,0 c 9.1952,-3.9936 13.66646,-7.92008 18.83862,-15.3197 2.73722,-3.17315 7.44329,-9.71942 11.55145,-10.72898 h 38.36458 v -10.58334 h -38.36458 c -4.39013,-1.3799 -11.21399,-10.2786 -12.24606,-11.76586 -4.28996,-6.20772 -7.33667,-8.88884 -13.93625,-12.26396 -3.25595,-1.66514 -7.31196,-3.46216 -7.46621,-3.30791 -0.053,0.053 -0.0659,14.78402 -0.0285,32.73554 l 0.0679,32.63914 z"
                 style="opacity:1;fill:#4d4d4d;fill-opacity:1;stroke:none;stroke-width:6.5659914;stroke-linecap:round;stroke-miterlimit:4;stroke-dasharray:none;stroke-opacity:1"
                 inkscape:path-effect="#path-effect1031"
                 inkscape:original-d="m 278.30464,185.46535 c -9.1952,-3.9936 -13.66646,-7.92008 -18.83862,-15.3197 -2.73722,-3.17315 -7.44329,-9.71942 -11.55145,-10.72898 h -38.36458 v -10.58334 h 38.36458 c 4.39013,-1.3799 11.21399,-10.2786 12.24606,-11.76586 4.28996,-6.20772 7.33667,-8.88884 13.93625,-12.26396 3.25595,-1.66514 7.31196,-3.46216 7.46621,-3.30791 0.053,0.053 0.0659,14.78402 0.0285,32.73554 l -0.0679,32.63914 z" />
            </g>
          </g>
          <g
             id="g1822"
             transform="translate(0,100.54167)"
             style="fill:#4d4d4d;stroke:#4d4d4d">
            <g
               id="g1820"
               transform="translate(224.36675)"
               inkscape:path-effect="#path-effect1023"
               style="fill:#4d4d4d;stroke:#4d4d4d">
              <path
                 id="path1818"
                 style="opacity:1;fill:#4d4d4d;fill-opacity:1;stroke:#4d4d4d;stroke-width:6.5;stroke-linecap:round;stroke-miterlimit:4;stroke-dasharray:none;stroke-opacity:1"
                 inkscape:path-effect="#path-effect1025;#path-effect1060"
                 sodipodi:type="arc"
                 sodipodi:cx="179.91666"
                 sodipodi:cy="53.583332"
                 sodipodi:rx="31.75"
                 sodipodi:ry="31.75"
                 d="m 211.66666,53.583332 c 0,17.535041 -14.21496,31.75 -31.75,31.75 -17.53504,0 -31.75,-14.214959 -31.75,-31.75 0,-17.535041 14.21496,-31.75 31.75,-31.75 17.53504,0 31.75,14.214959 31.75,31.75 z m -226.483482,0 c 0,17.535041 14.21495871,31.75 31.75,31.75 17.53504,0 31.75,-14.214959 31.75,-31.75 0,-17.535041 -14.21496,-31.75 -31.75,-31.75 -17.53504129,0 -31.75,14.214959 -31.75,31.75 z m 0,0 c 0,17.535041 14.21495871,31.75 31.75,31.75 17.53504,0 31.75,-14.214959 31.75,-31.75 0,-17.535041 -14.21496,-31.75 -31.75,-31.75 -17.53504129,0 -31.75,14.214959 -31.75,31.75 z m 226.483482,0 c 0,17.535041 -14.21496,31.75 -31.75,31.75 -17.53504,0 -31.75,-14.214959 -31.75,-31.75 0,-17.535041 14.21496,-31.75 31.75,-31.75 17.53504,0 31.75,14.214959 31.75,31.75 z m 0,0 c 0,17.535041 14.21496,31.75 31.75,31.75 17.53504,0 31.75,-14.214959 31.75,-31.75 0,-17.535041 -14.21496,-31.75 -31.75,-31.75 -17.53504,0 -31.75,14.214959 -31.75,31.75 z m 226.48348,0 c 0,17.535041 -14.21496,31.75 -31.75,31.75 -17.53504,0 -31.75,-14.214959 -31.75,-31.75 0,-17.535041 14.21496,-31.75 31.75,-31.75 17.53504,0 31.75,14.214959 31.75,31.75 z m 0,0 c 0,17.535041 -14.21496,31.75 -31.75,31.75 -17.53504,0 -31.75,-14.214959 -31.75,-31.75 0,-17.535041 14.21496,-31.75 31.75,-31.75 17.53504,0 31.75,14.214959 31.75,31.75 z m -226.48348,0 c 0,17.535041 14.21496,31.75 31.75,31.75 17.53504,0 31.75,-14.214959 31.75,-31.75 0,-17.535041 -14.21496,-31.75 -31.75,-31.75 -17.53504,0 -31.75,14.214959 -31.75,31.75 z" />
            </g>
          </g>
          <rect
             style="opacity:1;fill:#4d4d4d;fill-opacity:1;stroke:none;stroke-width:7.26721764;stroke-linecap:round;stroke-miterlimit:4;stroke-dasharray:none;stroke-opacity:1"
             id="rect1824"
             width="97.895836"
             height="13.229156"
             x="276.48959"
             y="147.51042" />
        </g>
      </g>
      <circle
         style="opacity:1;fill:#ffffff;fill-opacity:1;stroke:none;stroke-width:6.5;stroke-linecap:round;stroke-miterlimit:4;stroke-dasharray:none;stroke-opacity:1"
         id="path1922"
         cx="363.23279"
         cy="132.76767"
         r="43.65625" />
      <g
         id="g1774"
         transform="rotate(120.41837,390.01217,132.02395)">
        <g
           id="g1738">
          <g
             id="g901">
            <g
               transform="translate(113.24168)"
               id="g887">
              <path
                 sodipodi:nodetypes="cccccccccccc"
                 inkscape:connector-curvature="0"
                 id="path1029"
                 d="m 278.30464,185.46535 c -9.1952,-3.9936 -13.66646,-7.92008 -18.83862,-15.3197 -2.73722,-3.17315 -7.44329,-9.71942 -11.55145,-10.72898 h -38.36458 v -10.58334 h 38.36458 c 4.39013,-1.3799 11.21399,-10.2786 12.24606,-11.76586 4.28996,-6.20772 7.33667,-8.88884 13.93625,-12.26396 3.25595,-1.66514 7.31196,-3.46216 7.46621,-3.30791 0.053,0.053 0.0659,14.78402 0.0285,32.73554 l -0.0679,32.63914 z m -137.5093,0 c 9.1952,-3.9936 13.66646,-7.92008 18.83862,-15.3197 2.73722,-3.17315 7.44329,-9.71942 11.55145,-10.72898 h 38.36458 v -10.58334 h -38.36458 c -4.39013,-1.3799 -11.21399,-10.2786 -12.24606,-11.76586 -4.28996,-6.20772 -7.33667,-8.88884 -13.93625,-12.26396 -3.25595,-1.66514 -7.31196,-3.46216 -7.46621,-3.30791 -0.053,0.053 -0.0659,14.78402 -0.0285,32.73554 l 0.0679,32.63914 z"
                 style="opacity:1;fill:#9b5998;fill-opacity:1;stroke:none;stroke-width:6.5659914;stroke-linecap:round;stroke-miterlimit:4;stroke-dasharray:none;stroke-opacity:1"
                 inkscape:path-effect="#path-effect1031"
                 inkscape:original-d="m 278.30464,185.46535 c -9.1952,-3.9936 -13.66646,-7.92008 -18.83862,-15.3197 -2.73722,-3.17315 -7.44329,-9.71942 -11.55145,-10.72898 h -38.36458 v -10.58334 h 38.36458 c 4.39013,-1.3799 11.21399,-10.2786 12.24606,-11.76586 4.28996,-6.20772 7.33667,-8.88884 13.93625,-12.26396 3.25595,-1.66514 7.31196,-3.46216 7.46621,-3.30791 0.053,0.053 0.0659,14.78402 0.0285,32.73554 l -0.0679,32.63914 z" />
            </g>
          </g>
          <g
             id="g1021"
             transform="translate(0,100.54167)">
            <g
               id="g1013"
               transform="translate(224.36675)"
               inkscape:path-effect="#path-effect1023">
              <path
                 id="circle1009"
                 style="opacity:1;fill:#9b5998;fill-opacity:1;stroke:#9b5998;stroke-width:6.5;stroke-linecap:round;stroke-miterlimit:4;stroke-dasharray:none;stroke-opacity:1"
                 inkscape:path-effect="#path-effect1025;#path-effect1060"
                 sodipodi:type="arc"
                 sodipodi:cx="179.91666"
                 sodipodi:cy="53.583332"
                 sodipodi:rx="31.75"
                 sodipodi:ry="31.75"
                 d="m 211.66666,53.583332 c 0,17.535041 -14.21496,31.75 -31.75,31.75 -17.53504,0 -31.75,-14.214959 -31.75,-31.75 0,-17.535041 14.21496,-31.75 31.75,-31.75 17.53504,0 31.75,14.214959 31.75,31.75 z m -226.483482,0 c 0,17.535041 14.21495871,31.75 31.75,31.75 17.53504,0 31.75,-14.214959 31.75,-31.75 0,-17.535041 -14.21496,-31.75 -31.75,-31.75 -17.53504129,0 -31.75,14.214959 -31.75,31.75 z m 0,0 c 0,17.535041 14.21495871,31.75 31.75,31.75 17.53504,0 31.75,-14.214959 31.75,-31.75 0,-17.535041 -14.21496,-31.75 -31.75,-31.75 -17.53504129,0 -31.75,14.214959 -31.75,31.75 z m 226.483482,0 c 0,17.535041 -14.21496,31.75 -31.75,31.75 -17.53504,0 -31.75,-14.214959 -31.75,-31.75 0,-17.535041 14.21496,-31.75 31.75,-31.75 17.53504,0 31.75,14.214959 31.75,31.75 z m 0,0 c 0,17.535041 14.21496,31.75 31.75,31.75 17.53504,0 31.75,-14.214959 31.75,-31.75 0,-17.535041 -14.21496,-31.75 -31.75,-31.75 -17.53504,0 -31.75,14.214959 -31.75,31.75 z m 226.48348,0 c 0,17.535041 -14.21496,31.75 -31.75,31.75 -17.53504,0 -31.75,-14.214959 -31.75,-31.75 0,-17.535041 14.21496,-31.75 31.75,-31.75 17.53504,0 31.75,14.214959 31.75,31.75 z m 0,0 c 0,17.535041 -14.21496,31.75 -31.75,31.75 -17.53504,0 -31.75,-14.214959 -31.75,-31.75 0,-17.535041 14.21496,-31.75 31.75,-31.75 17.53504,0 31.75,14.214959 31.75,31.75 z m -226.48348,0 c 0,17.535041 14.21496,31.75 31.75,31.75 17.53504,0 31.75,-14.214959 31.75,-31.75 0,-17.535041 -14.21496,-31.75 -31.75,-31.75 -17.53504,0 -31.75,14.214959 -31.75,31.75 z" />
            </g>
          </g>
          <rect
             style="opacity:1;fill:#9b5998;fill-opacity:1;stroke:none;stroke-width:7.26721811;stroke-linecap:round;stroke-miterlimit:4;stroke-dasharray:none;stroke-opacity:1"
             id="rect1729"
             width="97.895836"
             height="13.229156"
             x="276.48959"
             y="147.51042" />
        </g>
      </g>
    </g>
  </g>
</svg>
