<?xml version="1.0" encoding="UTF-8" standalone="no"?>
<!-- Generator: Adobe Illustrator 21.1.0, SVG Export Plug-In . SVG Version: 6.00 Build 0)  -->

<svg
   xmlns:dc="http://purl.org/dc/elements/1.1/"
   xmlns:cc="http://creativecommons.org/ns#"
   xmlns:rdf="http://www.w3.org/1999/02/22-rdf-syntax-ns#"
   xmlns:svg="http://www.w3.org/2000/svg"
   xmlns="http://www.w3.org/2000/svg"
   xmlns:sodipodi="http://sodipodi.sourceforge.net/DTD/sodipodi-0.dtd"
   xmlns:inkscape="http://www.inkscape.org/namespaces/inkscape"
   version="1.1"
   id="Layer_1"
   x="0px"
   y="0px"
   viewBox="0 0 99.999998 100"
   xml:space="preserve"
   sodipodi:docname="lab_logo_square.svg"
   inkscape:version="0.92.2 5c3e80d, 2017-08-06"
   width="100"
   height="100"><metadata
     id="metadata5134"><rdf:RDF><cc:Work
         rdf:about=""><dc:format>image/svg+xml</dc:format><dc:type
           rdf:resource="http://purl.org/dc/dcmitype/StillImage" /><dc:title></dc:title></cc:Work></rdf:RDF></metadata><defs
     id="defs5132" /><sodipodi:namedview
     pagecolor="#ffffff"
     bordercolor="#666666"
     borderopacity="1"
     objecttolerance="10"
     gridtolerance="10"
     guidetolerance="10"
     inkscape:pageopacity="0"
     inkscape:pageshadow="2"
     inkscape:window-width="1687"
     inkscape:window-height="1006"
     id="namedview5130"
     showgrid="false"
     inkscape:zoom="4.5657238"
     inkscape:cx="43.000351"
     inkscape:cy="13.717647"
     inkscape:window-x="0"
     inkscape:window-y="0"
     inkscape:window-maximized="0"
     inkscape:current-layer="Layer_1"
     showguides="false"><inkscape:grid
       type="xygrid"
       id="grid5155" /></sodipodi:namedview><style
     type="text/css"
     id="style5053">
	.st0{fill:none;stroke:#3F3F3F;stroke-width:1.7016;stroke-linecap:round;}
	.st1{fill:#FFFFFF;}
	.st2{fill:none;stroke:#FFFFFF;stroke-width:1.94;stroke-linecap:round;}
	.st3{fill:none;stroke:#1ABC9C;stroke-width:1.7016;stroke-linecap:round;}
	.st4{fill:none;stroke:#000000;stroke-width:3.463165e-02;}
	.st5{fill:#3F3F3F;}
	.st6{fill:none;stroke:#3F3F3F;stroke-width:0.8508;stroke-linecap:round;}
	.st7{fill:none;stroke:#4D4D4D;stroke-width:0.8153;}
	.st8{fill:#4D4D4D;}
	.st9{fill:#1ABC9C;}
	.st10{fill:none;stroke:#4D4D4D;stroke-width:3.0345;stroke-linecap:round;}
	.st11{fill:none;}
	.st12{fill:none;stroke:#4D4D4D;stroke-width:3.0345;}
	.st13{fill:none;stroke:#4D4D4D;stroke-width:6.0691;}
</style><g
     id="g5732"
     transform="matrix(1.0764185,0,0,1.0764185,-0.08274226,-19.650806)"><path
       sodipodi:nodetypes="ccssccscccccc"
       style="fill:none;stroke:#3f3f3f;stroke-width:1.70200002;stroke-linecap:round;stroke-miterlimit:4;stroke-dasharray:none"
       inkscape:connector-curvature="0"
       id="path5055"
       d="m 48.8,66.000002 c 0,0 -1.3,1.4 -1.6,2.3 -0.375,1.025 -0.560944,1.482809 -0.571944,2.599995 -0.0055,0.557751 0.01907,1.122903 0.05822,1.69137 6e-5,8.58e-4 1.19e-4,0.0017 1.78e-4,0.0026 M 47,77 c 0.03613,0.566211 0.08515,0.774221 0.07343,1.326564 C 47.05,79.431252 46.9,80.500002 46.5,81.500002 c -0.5,1.2 -1.7,2.3 -1.7,2.3 m -18,2.3 c 0,0 1.5,-1.2 2.4,-1.4 4.3,-1.1 9.1,1.7 13.2,0.6 1.3,-0.4 2.4,-1.5 2.4,-1.5"
       class="st0" /><path
       sodipodi:nodetypes="cccccccccccc"
       style="fill:none;stroke:#1abc9c;stroke-width:1.70159996;stroke-linecap:round"
       inkscape:connector-curvature="0"
       id="path5061"
       d="m 55.8,73.700002 c 0,0 -1.5,1.2 -2.4,1.4 -4.3,1.1 -9.1,-1.7 -13.2,-0.6 -1.3,0.4 -2.4,1.5 -2.4,1.5 m -4,17.8 c 0,0 1.3,-1.4 1.6,-2.3 0.1875,-0.5125 0.314063,-1.040625 0.395117,-1.580273 0.173296,-1.142874 0.145485,-1.510239 0.09105,-2.576778 m -0.328958,-4.874077 c -0.106955,-1.140126 -0.003,-1.56847 0.114866,-2.621411 C 35.7625,79.31719 35.9,78.800002 36.1,78.300002 c 0.5,-1.2 1.7,-2.3 1.7,-2.3"
       class="st3" /><line
       id="line5069"
       y2="80.199997"
       x2="41.5"
       y1="81.699997"
       x1="42.900002"
       class="st4" /><path
       style="fill:#3f3f3f"
       inkscape:connector-curvature="0"
       id="path5071"
       d="m 45.1,77.400002 -0.5,-0.5 m -0.4,-0.5 0.5,0.5 m -6.3,6.5 -0.4,-0.5 m -0.5,-0.5 0.5,0.5"
       class="st5" /><path
       sodipodi:nodetypes="cccccccc"
       style="fill:none;stroke:#3f3f3f;stroke-width:0.85079998;stroke-linecap:round"
       inkscape:connector-curvature="0"
       id="path5073"
       d="m 45.1,77.400002 -0.5,-0.5 M 44.145244,76.441069 44.6,76.900002 M 38.482134,83.386313 38,82.900002 m -0.5,-0.5 0.5,0.5"
       class="st6" /><path
       style="fill:#3f3f3f"
       inkscape:connector-curvature="0"
       id="path5075"
       d="m 44.6,80.200002 -1.6,-1.8 m -1.7,-1.8 1.6,1.8 m -1.6,4.8 -1.6,-1.8 m -1.7,-1.8 1.6,1.8"
       class="st5" /><path
       sodipodi:nodetypes="cccccccc"
       style="fill:none;stroke:#3f3f3f;stroke-width:0.85079998;stroke-linecap:round"
       inkscape:connector-curvature="0"
       id="path5077"
       d="m 44.6,80.200002 -1.7,-1.8 m -1.6,-1.8 1.6,1.8 m -1.6,4.8 -1.6,-1.8 m -1.7,-1.8 1.7,1.8"
       class="st6" /><path
       style="fill:#3f3f3f"
       inkscape:connector-curvature="0"
       id="path5079"
       d="m 43.4,82.200002 -2.1,-2.3 m -2.1,-2.3 2.1,2.3"
       class="st5" /><path
       style="fill:none;stroke:#3f3f3f;stroke-width:0.85079998;stroke-linecap:round"
       inkscape:connector-curvature="0"
       id="path5081"
       d="m 43.4,82.200002 -2.1,-2.3 m -2.1,-2.3 2.1,2.3"
       class="st6" /><path
       style="fill:#3f3f3f"
       inkscape:connector-curvature="0"
       id="path5083"
       d="m 33.5,90.300002 -1.6,-1.8 m -1.7,-1.8 1.6,1.8 m 20.6,-15.4 -1.6,-1.8 m -1.7,-1.8 1.6,1.8"
       class="st5" /><path
       sodipodi:nodetypes="cccccccc"
       style="fill:none;stroke:#3f3f3f;stroke-width:0.85079998;stroke-linecap:round"
       inkscape:connector-curvature="0"
       id="path5085"
       d="m 33.5,90.300002 -1.7,-1.8 m -1.6,-1.8 1.6,1.8 m 20.6,-15.4 -1.6,-1.8 m -1.7,-1.8 1.7,1.8"
       class="st6" /><path
       style="fill:#3f3f3f"
       inkscape:connector-curvature="0"
       id="path5087"
       d="m 32.3,92.300002 -2.1,-2.3 m -2.1,-2.3 2.1,2.3 m 24.3,-17.9 -2.1,-2.3 m -2.1,-2.3 2.1,2.3"
       class="st5" /><path
       style="fill:none;stroke:#3f3f3f;stroke-width:0.85079998;stroke-linecap:round"
       inkscape:connector-curvature="0"
       id="path5089"
       d="m 32.3,92.300002 -2.1,-2.3 m -2.1,-2.3 2.1,2.3 m 24.3,-17.9 -2.1,-2.3 m -2.1,-2.3 2.1,2.3"
       class="st6" /><path
       style="fill:#3f3f3f"
       inkscape:connector-curvature="0"
       id="path5091"
       d="m 34,87.500002 -0.5,-0.5 m -0.5,-0.5 0.5,0.5 m 16.1,-13.7 -0.5,-0.5 m -0.5,-0.5 0.5,0.5"
       class="st5" /><path
       style="fill:none;stroke:#3f3f3f;stroke-width:0.85079998;stroke-linecap:round"
       inkscape:connector-curvature="0"
       id="path5093"
       d="m 34,87.500002 -0.5,-0.5 m -0.5,-0.5 0.5,0.5 m 16.1,-13.7 -0.5,-0.5 m -0.5,-0.5 0.5,0.5"
       class="st6" /><polyline
       transform="translate(0,26.900002)"
       style="fill:none;stroke:#4d4d4d;stroke-width:0.81529999"
       id="polyline5095"
       points="32.6,35.1 22.7,31.5 29.2,20.4 "
       class="st7" /><circle
       style="fill:#4d4d4d;stroke-width:1.00002658"
       r="3.6000955"
       id="ellipse5097"
       cy="45.361095"
       cx="-58.146935"
       class="st8"
       transform="rotate(-72.64495)" /><circle
       style="fill:#4d4d4d;stroke-width:0.99995512"
       r="2.2998967"
       id="ellipse5099"
       cy="49.51672"
       cx="-49.469654"
       class="st8"
       transform="rotate(-72.619656)" /><ellipse
       style="fill:#4d4d4d;stroke-width:0.99999672"
       id="ellipse5101"
       ry="5.4999819"
       rx="5.3999825"
       cy="39.066864"
       cx="-49.030197"
       class="st8"
       transform="rotate(-72.650419)" /><circle
       style="fill:#4d4d4d;stroke-width:0.99996096"
       r="3.5998595"
       id="ellipse5103"
       cy="28.553007"
       cx="-57.260014"
       class="st8"
       transform="rotate(-72.637772)" /><circle
       style="fill:#4d4d4d;stroke-width:0.99995512"
       r="2.2998967"
       id="ellipse5105"
       cy="31.299324"
       cx="-39.984394"
       class="st8"
       transform="rotate(-72.619656)" /><circle
       style="fill:#1abc9c;stroke-width:1.00002658"
       r="3.6000955"
       id="ellipse5107"
       cy="41.94899"
       cx="-36.409077"
       class="st9"
       transform="rotate(-72.64495)" /><polyline
       transform="translate(0,26.900002)"
       style="fill:none;stroke:#4d4d4d;stroke-width:0.81529999"
       id="polyline5109"
       points="10.1,36.3 22.7,31.5 26,42.1 "
       class="st7" /><line
       style="fill:none;stroke:#4d4d4d;stroke-width:0.81529999"
       id="line5111"
       y2="47.700001"
       x2="17.9"
       y1="58.400002"
       x1="22.700001"
       class="st7" /><rect
       style="fill:#4d4d4d"
       id="rect5113"
       height="25.700001"
       width="6.4000001"
       class="st8"
       y="37.800003"
       x="48" /><rect
       style="fill:#4d4d4d"
       id="rect5115"
       height="12.8"
       width="6.4000001"
       class="st8"
       y="50.600002"
       x="38.299999" /><rect
       style="fill:#1abc9c"
       id="rect5117"
       height="17.700001"
       width="6.4000001"
       class="st9"
       y="45.800003"
       x="57.599998" /><circle
       style="fill:none;stroke:#4d4d4d;stroke-width:3.03449988;stroke-linecap:round"
       id="circle5119"
       r="35.099998"
       cy="63.5"
       cx="37.700001"
       class="st10" /><line
       style="fill:none"
       id="line5121"
       y2="82"
       x2="66.400002"
       y1="94.700005"
       x1="86.900002"
       class="st11" /><line
       style="fill:none;stroke:#4d4d4d;stroke-width:3.03449988"
       id="line5123"
       y2="82"
       x2="66.400002"
       y1="94.700005"
       x1="86.900002"
       class="st12" /><line
       style="fill:none"
       id="line5125"
       y2="84.600006"
       x2="70.699997"
       y1="97.300003"
       x1="91.199997"
       class="st11" /><line
       style="fill:none;stroke:#4d4d4d;stroke-width:6.0690999"
       id="line5127"
       y2="84.600006"
       x2="70.699997"
       y1="97.300003"
       x1="91.199997"
       class="st13" /></g></svg>