<?xml version="1.0" encoding="utf-8"?>
<!-- Generator: Adobe Illustrator 21.1.0, SVG Export Plug-In . SVG Version: 6.00 Build 0)  -->
<svg version="1.1" id="Layer_1" xmlns="http://www.w3.org/2000/svg" xmlns:xlink="http://www.w3.org/1999/xlink" x="0px" y="0px"
	 viewBox="0 0 93.9 73.1" style="enable-background:new 0 0 93.9 73.1;" xml:space="preserve">
<style type="text/css">
	.st0{fill:none;stroke:#3F3F3F;stroke-width:1.7016;stroke-linecap:round;}
	.st1{fill:#FFFFFF;}
	.st2{fill:none;stroke:#FFFFFF;stroke-width:1.94;stroke-linecap:round;}
	.st3{fill:none;stroke:#1ABC9C;stroke-width:1.7016;stroke-linecap:round;}
	.st4{fill:none;stroke:#000000;stroke-width:3.463165e-02;}
	.st5{fill:#3F3F3F;}
	.st6{fill:none;stroke:#3F3F3F;stroke-width:0.8508;stroke-linecap:round;}
	.st7{fill:none;stroke:#4D4D4D;stroke-width:0.8153;}
	.st8{fill:#4D4D4D;}
	.st9{fill:#1ABC9C;}
	.st10{fill:none;stroke:#4D4D4D;stroke-width:3.0345;stroke-linecap:round;}
	.st11{fill:none;stroke:#4D4D4D;stroke-width:3.0345;}
	.st12{fill:none;stroke:#4D4D4D;stroke-width:6.0691;}
</style>
<path class="st0" d="M48.8,39.1c0,0-1.3,1.4-1.6,2.3c-1.5,4.1,0.9,9.2-0.7,13.2c-0.5,1.2-1.7,2.3-1.7,2.3 M26.8,59.2
	c0,0,1.5-1.2,2.4-1.4c4.3-1.1,9.1,1.7,13.2,0.6c1.3-0.4,2.4-1.5,2.4-1.5"/>
<polygon class="st1" points="47.5,49 48,47.4 46.3,47 45.8,48.7 "/>
<polygon class="st2" points="47.5,49 48,47.4 46.3,47 45.8,48.7 "/>
<path class="st3" d="M55.8,46.8c0,0-1.5,1.2-2.4,1.4c-4.3,1.1-9.1-1.7-13.2-0.6c-1.3,0.4-2.4,1.5-2.4,1.5 M33.8,66.9
	c0,0,1.3-1.4,1.6-2.3c1.5-4.1-0.9-9.2,0.7-13.2c0.5-1.2,1.7-2.3,1.7-2.3"/>
<polygon class="st1" points="35.2,57.1 34.7,58.8 36.4,59.1 36.9,57.4 "/>
<polygon class="st2" points="35.2,57.1 34.7,58.8 36.4,59.1 36.9,57.4 "/>
<path class="st0" d="M26.8,59.2c0,0,1.5-1.2,2.4-1.4c4.3-1.1,9.1,1.7,13.2,0.6c1.3-0.4,2.6-1.7,2.6-1.7"/>
<line class="st4" x1="42.9" y1="54.8" x2="41.5" y2="53.3"/>
<path class="st5" d="M45.1,50.5L44.6,50 M44.2,49.5l0.5,0.5 M38.4,56.5L38,56 M37.5,55.5L38,56"/>
<path class="st6" d="M45.1,50.5L44.6,50 M44.2,49.5l0.5,0.5 M38.4,56.5L38,56 M37.5,55.5L38,56"/>
<path class="st5" d="M44.6,53.3L43,51.5 M41.3,49.7l1.6,1.8 M41.3,56.3l-1.6-1.8 M38,52.7l1.6,1.8"/>
<path class="st6" d="M44.6,53.3L43,51.5 M41.3,49.7l1.6,1.8 M41.3,56.3l-1.6-1.8 M38,52.7l1.6,1.8"/>
<path class="st5" d="M43.4,55.3L41.3,53 M39.2,50.7l2.1,2.3"/>
<path class="st6" d="M43.4,55.3L41.3,53 M39.2,50.7l2.1,2.3"/>
<path class="st5" d="M33.5,63.4l-1.6-1.8 M30.2,59.8l1.6,1.8 M52.4,46.2l-1.6-1.8 M49.1,42.6l1.6,1.8"/>
<path class="st6" d="M33.5,63.4l-1.6-1.8 M30.2,59.8l1.6,1.8 M52.4,46.2l-1.6-1.8 M49.1,42.6l1.6,1.8"/>
<path class="st5" d="M32.3,65.4l-2.1-2.3 M28.1,60.8l2.1,2.3 M54.5,45.2l-2.1-2.3 M50.3,40.6l2.1,2.3"/>
<path class="st6" d="M32.3,65.4l-2.1-2.3 M28.1,60.8l2.1,2.3 M54.5,45.2l-2.1-2.3 M50.3,40.6l2.1,2.3"/>
<path class="st5" d="M34,60.6l-0.5-0.5 M33,59.6l0.5,0.5 M49.6,46.4l-0.5-0.5 M48.6,45.4l0.5,0.5"/>
<path class="st6" d="M34,60.6l-0.5-0.5 M33,59.6l0.5,0.5 M49.6,46.4l-0.5-0.5 M48.6,45.4l0.5,0.5"/>
<polyline class="st7" points="32.6,35.1 22.7,31.5 29.2,20.4 "/>
<ellipse transform="matrix(0.2983 -0.9545 0.9545 0.2983 -21.9442 54.4081)" class="st8" cx="26" cy="42.1" rx="3.6" ry="3.6"/>
<ellipse transform="matrix(0.2987 -0.9543 0.9543 0.2987 -10.7124 55.6443)" class="st8" cx="32.5" cy="35.1" rx="2.3" ry="2.3"/>
<ellipse transform="matrix(0.2982 -0.9545 0.9545 0.2982 -14.2135 43.7899)" class="st8" cx="22.7" cy="31.6" rx="5.4" ry="5.5"/>
<ellipse transform="matrix(0.2984 -0.9544 0.9544 0.2984 -27.4946 35.1162)" class="st8" cx="10.1" cy="36.3" rx="3.6" ry="3.6"/>
<ellipse transform="matrix(0.2987 -0.9543 0.9543 0.2987 -7.1161 31.6094)" class="st8" cx="18" cy="20.6" rx="2.3" ry="2.3"/>
<ellipse transform="matrix(0.2983 -0.9545 0.9545 0.2983 1.1466 42.1635)" class="st9" cx="29.2" cy="20.3" rx="3.6" ry="3.6"/>
<polyline class="st7" points="10.1,36.3 22.7,31.5 26,42.1 "/>
<line class="st7" x1="22.7" y1="31.5" x2="17.9" y2="20.8"/>
<rect x="48" y="10.9" class="st8" width="6.4" height="25.7"/>
<rect x="38.3" y="23.7" class="st8" width="6.4" height="12.8"/>
<rect x="57.6" y="18.9" class="st9" width="6.4" height="17.7"/>
<circle class="st10" cx="37.7" cy="36.6" r="35.1"/>
<line class="st8" x1="86.9" y1="67.8" x2="66.4" y2="55.1"/>
<line class="st11" x1="86.9" y1="67.8" x2="66.4" y2="55.1"/>
<line class="st8" x1="91.2" y1="70.4" x2="70.7" y2="57.7"/>
<line class="st12" x1="91.2" y1="70.4" x2="70.7" y2="57.7"/>
</svg>
